<?xml version="1.0" encoding="utf-8"?>
<svg width="150" height="24" viewBox="0 1.255 16.067 17.548" fill="none" xmlns="http://www.w3.org/2000/svg">
  <g clip-path="url(#clip0_734_192362)">
    <path d="M0.5 7.47041C0.558594 7.26534 0.617188 7.06026 0.705078 6.88448C0.587891 7.06026 0.529297 7.26534 0.5 7.47041ZM7.73633 1.55245C8 1.52315 8.23437 1.52315 8.49805 1.52315C8.55664 1.52315 8.61523 1.52315 8.67383 1.52315C8.35156 1.49385 8.05859 1.49385 7.73633 1.55245ZM14.0059 3.57393C14.2109 3.77901 14.4453 3.95479 14.6211 4.18917C14.4453 3.95479 14.2402 3.74971 14.0059 3.57393Z" fill="#1B70F1"/>
    <path d="M12.6582 12.2754L15.7344 14.0625C14.2402 16.6406 11.4863 18.252 8.49805 18.252C3.89844 18.252 0.148438 14.4727 0.148438 9.90235C0.148438 9.08203 0.265625 8.26172 0.5 7.5C0.558594 7.29492 0.617188 7.08985 0.705078 6.91406C0.910156 6.5625 1.20312 6.24023 1.64258 6.06445C1.84766 5.97656 2.05273 5.91797 2.25781 5.85938C2.43359 4.36523 3.42969 3.69141 4.74805 3.36914C4.95312 3.31055 5.1875 3.19336 5.33398 3.01758C6.06641 2.22656 6.88672 1.72851 7.73633 1.58203C8 1.55273 8.23438 1.55273 8.49805 1.55273C8.55664 1.55273 8.61523 1.55273 8.67383 1.55273C9.46484 1.64063 10.2852 1.99219 11.0469 2.66602C11.2227 2.8125 11.5156 2.90039 11.75 2.90039C12.6582 2.92969 13.4199 3.16406 14.0059 3.60352C14.2109 3.80859 14.4453 3.98437 14.6211 4.21875C15.0312 4.6875 15.4121 5.18555 15.7344 5.74219L15.3828 5.94727L13.625 6.97266C13.2734 6.94336 12.9219 6.85547 12.5703 6.82617C12.4238 6.79688 12.2773 6.79688 12.1309 6.82617C11.9551 6.6211 11.7793 6.44531 11.5742 6.26953C11.8672 6.21094 12.2188 6.21094 12.5703 6.24024C13.0977 6.29883 13.332 6.03515 13.0977 5.53711C12.9805 5.24414 12.7754 4.98047 12.5996 4.6582C13.2734 4.86328 13.332 4.89258 13.8301 5.85938C14.0059 6.18164 14.2402 6.44531 14.5625 6.24024C14.7676 6.12305 14.9141 5.71289 14.8555 5.44922C14.6797 4.42383 13.127 3.33984 12.1016 3.48633C11.9551 3.51562 11.7207 3.75 11.7207 3.89649C11.7207 5.27344 11.7207 5.27344 10.5195 5.53711L10.4902 5.56641C10.3145 5.47852 10.1094 5.39062 9.9043 5.33203C9.75781 4.30664 9.40625 4.13086 8.67383 3.25195C8.9668 3.33985 9.25977 3.42773 9.49414 3.60352C9.78711 3.83789 10.0215 4.18945 10.3145 4.45312C10.4902 4.59961 10.7832 4.62891 11.0176 4.7168C11.0762 4.45313 11.2227 4.18945 11.1641 3.95508C10.8711 2.95898 10.1094 2.40234 9.11328 2.19726C8.11719 1.99219 7.17969 2.10937 6.38867 2.8418C6.27148 2.92969 6.21289 3.07617 6.24219 3.04687C6.88672 3.45703 7.58984 3.75 8.08789 4.27735C8.32227 4.54102 8.49805 4.80469 8.61523 5.12695C8.58594 5.12695 8.52734 5.12695 8.46875 5.12695C8.29297 5.12695 8.08789 5.12696 7.91211 5.15625C7.70703 4.6875 7.35547 4.30664 6.91602 4.07226C5.89062 3.57422 4.19141 3.8086 3.3418 4.57031C2.87305 4.98047 2.66797 5.47852 2.87305 6.06445C2.93164 6.24023 3.22461 6.44531 3.42969 6.47461C4.04492 6.5625 4.39648 6.15234 4.74805 5.71289C4.80664 5.6543 4.80664 5.53711 4.83594 5.39062H3.78125C4.74805 4.54101 5.71484 4.6875 6.56445 5.53711C6.38867 5.625 6.21289 5.6836 6.06641 5.80078C5.77344 5.56641 5.53906 5.53711 5.27539 5.94727C5.09961 6.21094 4.89453 6.44531 4.66016 6.67969C4.01562 7.32422 3.19531 7.32422 2.49219 6.70898C2.375 6.5918 2.05273 6.53321 1.96484 6.6211C1.70117 6.79688 1.34961 7.08984 1.34961 7.32422C1.34961 7.64649 1.61328 8.02735 1.87695 8.23242C2.46289 8.64258 3.19531 8.58398 3.81055 8.26172C3.89844 8.23242 3.95703 8.17383 4.04492 8.14453C3.83984 8.61328 3.72266 9.11133 3.69336 9.63867C3.69336 9.75586 3.69336 9.87305 3.69336 9.99024C3.69336 12.6563 5.86133 14.7949 8.49805 14.7949C10.2852 14.6777 11.8379 13.7109 12.6582 12.2754Z" fill="#1B70F1"/>
  </g>
  <defs>
    <clipPath id="clip0_734_192362">
      <rect width="149.852" height="23.4668" fill="white" transform="translate(0.148438)"/>
    </clipPath>
  </defs>
</svg>